<?xml version="1.0" standalone="no"?>
<!DOCTYPE svg PUBLIC "-//W3C//DTD SVG 20010904//EN"
 "http://www.w3.org/TR/2001/REC-SVG-20010904/DTD/svg10.dtd">
<svg version="1.0" xmlns="http://www.w3.org/2000/svg"
 width="1480.000000pt" height="1480.000000pt" viewBox="0 0 1480.000000 1480.000000"
 preserveAspectRatio="xMidYMid meet">
<metadata>
Created by potrace 1.14, written by Peter Selinger 2001-2017
</metadata>
<g transform="translate(0.000000,1480.000000) scale(0.100000,-0.100000)"
fill="#000000" stroke="none">
<path d="M6140 14765 c0 -19 4 -23 18 -19 16 5 16 5 0 -6 -10 -6 -18 -20 -18
-30 0 -14 5 -18 18 -14 13 5 14 4 3 -4 -9 -6 -15 -32 -17 -69 -2 -39 0 -53 6
-43 6 9 10 10 10 3 0 -6 -4 -15 -10 -18 -15 -9 -12 -27 3 -19 10 6 10 4 0 -7
-7 -7 -13 -19 -13 -27 0 -8 5 -10 13 -6 10 6 10 4 0 -7 -19 -20 -16 -39 5 -32
15 5 15 4 -1 -8 -17 -14 -16 -17 24 -52 41 -37 65 -44 38 -10 -8 9 -9 14 -2
10 9 -5 12 34 12 159 1 158 1 166 -19 171 -11 3 -20 12 -20 19 0 8 -9 14 -21
14 -11 0 -17 5 -14 10 3 6 1 10 -4 10 -6 0 -11 -11 -11 -25z"/>
<path d="M7584 14623 c-58 -13 -151 -54 -189 -83 -11 -8 -47 -42 -80 -75 -103
-103 -153 -239 -142 -388 7 -98 29 -164 83 -244 l45 -67 -54 -52 -53 -52 0
-476 c1 -262 -2 -476 -5 -476 -3 0 -42 35 -85 78 l-80 77 1 339 0 338 24 19
c17 14 24 31 26 62 1 23 7 58 13 78 56 165 -22 369 -178 469 -225 145 -529 60
-642 -178 -25 -51 -32 -81 -36 -151 -7 -127 24 -212 111 -307 68 -75 171 -129
257 -136 l30 -2 1 -86 c2 -319 0 -832 -3 -835 -2 -2 -58 50 -126 115 l-122
119 0 249 0 250 25 16 c54 35 21 119 -47 119 -64 0 -89 -73 -42 -120 l27 -27
-1 -215 c0 -119 -1 -220 -1 -225 -1 -6 -16 5 -35 23 -27 27 -33 38 -27 55 19
49 -13 96 -64 96 -48 0 -83 -49 -66 -94 9 -22 58 -50 78 -44 6 2 99 -82 207
-187 l196 -189 -87 -84 c-49 -46 -152 -146 -231 -222 l-142 -138 -66 61 -65
62 72 68 71 68 1 174 c0 155 2 175 17 180 27 9 41 49 29 84 -26 75 -138 47
-139 -35 0 -6 12 -24 28 -39 27 -27 27 -27 28 -179 1 -172 1 -173 -81 -248
l-51 -47 -71 70 -71 70 0 529 0 530 23 0 c61 0 145 55 183 120 22 37 27 57 27
116 0 61 -4 77 -30 119 -95 154 -325 155 -419 2 -25 -40 -30 -59 -30 -115 -1
-102 47 -180 135 -219 21 -9 39 -19 40 -22 5 -30 2 -551 -3 -551 -4 0 -32 25
-62 55 -55 53 -56 56 -50 97 3 24 13 68 21 98 23 82 13 183 -27 264 -102 207
-360 284 -569 170 -67 -36 -136 -110 -169 -182 -24 -50 -27 -69 -26 -157 0
-90 3 -106 29 -160 34 -70 116 -155 175 -181 l41 -19 -5 -75 c-11 -153 -18
-257 -21 -340 -2 -47 -4 -94 -4 -104 -1 -18 -3 -17 -21 4 -18 21 -20 37 -20
170 0 144 0 147 25 168 32 28 33 74 3 102 -31 28 -72 26 -97 -6 -28 -36 -26
-61 7 -92 l27 -27 -1 -154 -1 -154 38 -36 37 -37 5 -221 5 -221 -110 106 c-61
59 -138 134 -172 167 l-61 59 1 232 0 232 31 26 c79 66 34 176 -71 176 -96 0
-134 -132 -52 -185 l25 -17 -1 -239 c-1 -131 -5 -239 -9 -239 -5 0 -15 13 -23
29 -22 42 -103 110 -162 137 -87 38 -160 47 -262 29 -35 -6 -47 -3 -64 12 -14
12 -34 18 -66 17 -38 -1 -50 -6 -75 -34 -26 -29 -29 -38 -24 -78 4 -37 0 -53
-29 -101 -90 -152 -67 -334 60 -463 l36 -37 0 -289 0 -289 -56 -51 c-65 -60
-49 -65 -166 48 l-78 75 0 178 0 179 25 20 c50 39 19 118 -45 118 -64 0 -91
-70 -45 -116 25 -25 25 -26 25 -208 l0 -183 99 -96 100 -95 -85 -83 c-46 -46
-88 -85 -92 -86 -7 -3 -118 101 -323 303 l-95 94 0 258 1 259 33 31 c17 16 33
37 33 46 1 9 2 22 3 29 4 23 -15 62 -38 79 -64 46 -157 12 -171 -64 -6 -30 19
-81 47 -100 l24 -16 -1 -274 -1 -273 102 -100 c55 -55 170 -166 253 -247 84
-82 150 -148 147 -149 -9 -1 -251 -1 -283 0 -21 1 -53 26 -126 96 -87 84 -97
97 -91 120 17 67 -65 115 -117 68 -46 -40 -15 -110 52 -116 29 -3 49 -17 96
-63 32 -32 79 -77 104 -100 l45 -41 183 0 182 0 67 -66 c37 -36 105 -102 151
-146 l84 -81 2 -268 c0 -147 -1 -273 -3 -279 -3 -9 -30 -13 -90 -13 l-85 0
-91 89 c-50 49 -140 136 -199 193 -99 95 -107 106 -99 128 43 117 -137 194
-191 82 -34 -69 13 -143 92 -146 32 -1 49 -14 146 -107 61 -59 157 -152 214
-207 l103 -99 87 -1 c47 0 97 0 111 -1 25 -1 61 -33 313 -278 48 -47 87 -87
87 -88 0 -2 -17 -9 -37 -16 -24 -8 -98 -13 -201 -14 -139 -1 -166 2 -175 15
-30 41 -76 47 -111 15 -29 -26 -32 -45 -15 -78 16 -30 28 -37 66 -37 22 0 38
8 51 25 19 24 23 25 146 25 l127 0 -54 -50 c-58 -53 -113 -148 -124 -213 -5
-32 -8 -36 -36 -35 -62 2 -91 -82 -42 -120 25 -20 26 -23 23 -136 l-3 -116
-105 101 c-58 55 -170 163 -248 240 l-144 139 1 313 1 313 -182 175 c-99 95
-230 222 -290 280 l-110 106 84 82 85 81 -2 50 c-2 43 2 55 27 80 15 16 28 39
28 50 0 30 -45 71 -72 68 -69 -9 -96 -83 -45 -120 23 -17 27 -27 27 -67 0 -46
-2 -50 -75 -119 -42 -40 -79 -72 -83 -72 -4 0 -51 42 -104 94 l-98 94 0 251
c0 227 2 251 17 251 30 0 123 52 173 97 227 204 142 579 -153 674 -230 74
-463 -45 -537 -274 -19 -62 -15 -173 10 -240 21 -57 74 -135 114 -169 68 -59
193 -107 269 -104 l37 2 0 -257 0 -256 242 -234 c133 -129 267 -259 299 -289
31 -30 104 -101 163 -158 l106 -103 0 -178 0 -177 -155 -1 -156 -1 -47 45
c-26 25 -87 84 -136 131 l-88 87 -1 102 c0 99 1 104 27 124 50 39 20 119 -44
119 -64 0 -94 -79 -45 -118 24 -19 25 -25 25 -118 l0 -99 -55 -2 c-30 -1 -55
2 -55 7 0 18 -44 50 -70 50 -55 0 -89 -69 -56 -112 7 -10 28 -21 45 -24 26 -5
37 -2 59 18 22 21 38 25 85 26 l58 1 121 -117 c67 -64 131 -126 142 -137 19
-18 34 -20 184 -20 l162 1 0 -101 0 -101 -290 0 -289 1 -58 56 c-32 31 -121
117 -197 192 l-140 135 0 213 0 214 28 28 c23 23 27 34 22 60 -7 38 -30 57
-67 57 -67 0 -95 -73 -45 -116 l26 -23 0 -224 0 -224 153 -148 c83 -81 177
-172 208 -202 l56 -54 298 0 c215 0 301 -4 310 -12 7 -7 112 -109 235 -227
349 -337 342 -330 323 -331 -10 0 -89 -1 -176 -1 l-157 -1 -68 64 c-85 81 -87
83 -102 149 -28 117 -112 202 -231 232 -152 39 -302 -29 -368 -165 -78 -159
-17 -334 145 -417 42 -21 63 -25 139 -25 78 0 97 4 147 28 87 43 141 113 174
225 2 8 33 -15 76 -57 l73 -71 205 0 204 0 44 -42 43 -43 494 0 494 0 205
-199 c113 -109 204 -201 202 -205 -2 -3 -85 -5 -183 -3 -164 3 -179 4 -180 21
-3 36 -46 111 -81 142 -80 70 -204 93 -295 54 -102 -43 -174 -157 -164 -261 6
-59 46 -144 83 -173 24 -19 25 -23 16 -67 -11 -49 -9 -108 3 -159 11 -42 50
-119 69 -134 17 -14 22 -35 7 -29 -5 2 -52 45 -105 96 -95 91 -97 93 -93 133
3 33 0 43 -21 59 -13 11 -36 20 -49 20 -29 0 -73 -42 -73 -70 0 -32 46 -73 76
-67 20 3 36 -6 78 -47 176 -168 169 -163 206 -161 22 1 53 -8 85 -26 28 -15
66 -31 85 -35 19 -4 38 -9 43 -10 4 -1 33 -2 65 -3 l59 -1 114 -111 c63 -60
163 -157 222 -215 l109 -104 267 0 268 0 103 -98 103 -99 -8 -59 c-4 -32 -9
-68 -10 -79 -8 -79 -17 -152 -20 -165 -2 -8 -7 -51 -10 -95 -4 -44 -8 -96 -10
-115 -2 -19 -6 -80 -10 -135 -3 -55 -8 -116 -10 -135 -4 -31 -9 -139 -21 -410
-1 -47 -4 -259 -4 -471 l-1 -385 -44 -12 c-202 -54 -366 -218 -448 -448 -30
-85 -57 -206 -63 -289 -9 -127 -14 -180 -18 -195 -3 -8 -7 -31 -10 -50 -3 -19
-12 -75 -20 -125 -22 -133 -27 -164 -32 -230 -2 -33 -7 -82 -9 -110 -2 -27 -7
-125 -11 -218 -7 -178 -7 -177 45 -236 11 -13 21 -27 21 -31 0 -9 -137 -140
-146 -140 -4 0 -31 16 -60 35 -29 20 -93 54 -141 76 -48 23 -96 45 -105 50
-10 5 -27 9 -37 9 -30 0 -34 16 -7 33 21 15 25 14 43 -2 11 -10 29 -24 41 -30
41 -22 25 21 -20 56 l-42 31 -35 -26 c-20 -15 -39 -31 -42 -35 -3 -5 -33 -2
-65 7 -170 43 -324 60 -569 60 -258 1 -364 -10 -575 -60 -490 -116 -720 -371
-544 -602 l26 -34 -95 -91 c-52 -51 -145 -140 -206 -199 l-111 -108 -220 0
c-121 0 -220 3 -221 8 -21 189 -153 350 -336 408 -62 19 -173 25 -243 12 -97
-17 -209 -80 -269 -152 -9 -10 -21 -23 -26 -30 -22 -24 -54 -83 -70 -131 -73
-217 30 -458 239 -560 80 -39 101 -44 202 -50 115 -6 242 33 322 99 16 15 32
26 34 26 3 0 4 -25 4 -56 l-2 -56 -174 -169 c-140 -134 -172 -171 -163 -180
15 -15 4 -24 232 198 l146 141 0 84 c-1 75 2 87 27 124 15 23 28 46 28 51 0 5
36 44 79 87 l80 79 180 1 180 1 202 195 c111 107 208 201 215 208 11 10 23 7
64 -19 27 -17 50 -32 50 -34 0 -2 -38 -41 -84 -85 l-84 -81 1 -101 0 -101
-108 -102 c-95 -91 -118 -125 -86 -125 5 0 59 48 120 108 l111 107 0 101 0
100 83 80 83 80 61 -28 c33 -15 98 -39 144 -53 46 -15 91 -29 99 -32 10 -3
-33 -51 -138 -152 l-152 -147 24 -23 25 -24 43 41 43 41 3 -131 3 -131 -51
-49 c-27 -26 -50 -53 -50 -58 0 -25 40 -5 86 43 l51 52 -2 155 -2 155 106 103
c102 99 107 103 141 97 102 -17 164 -25 245 -31 50 -3 96 -7 103 -10 8 -2 -8
-24 -40 -57 -31 -30 -67 -81 -86 -120 -19 -37 -44 -78 -56 -90 -12 -12 -109
-105 -215 -207 l-192 -185 -557 -2 c-306 -1 -565 -2 -575 -2 -14 -1 -18 -8
-15 -33 l3 -33 240 -1 c132 -1 241 -2 242 -3 3 -2 -256 -254 -270 -263 -7 -4
-83 -8 -170 -8 -146 0 -158 -1 -155 -17 3 -16 20 -18 168 -19 l165 -1 104 101
c58 55 130 126 160 156 l56 55 297 1 298 0 0 -38 c1 -21 1 -86 1 -145 l1 -108
-178 -172 -177 -173 -536 0 c-295 0 -564 0 -598 0 -53 0 -63 -3 -63 -17 0 -17
36 -18 606 -18 l605 0 77 73 c42 41 128 123 190 184 l112 110 0 154 0 154 121
117 c67 65 153 148 190 185 l69 67 1 -37 c1 -51 8 -88 24 -136 19 -54 21 -49
-24 -93 l-38 -38 -1 -124 0 -124 -77 -74 c-68 -65 -84 -93 -54 -93 5 0 46 35
89 77 l80 76 0 124 c0 122 0 123 29 153 l28 30 27 -35 c59 -77 163 -165 195
-165 6 0 11 -7 11 -15 0 -8 -5 -15 -11 -15 -8 0 -8 -5 1 -15 11 -13 15 -12 39
4 21 15 31 16 51 8 14 -5 72 -10 130 -10 85 0 116 4 165 23 117 44 226 137
271 230 17 34 21 37 44 28 14 -5 90 -25 170 -44 227 -54 256 -63 333 -104 104
-56 198 -88 280 -95 65 -6 149 -33 161 -53 3 -4 -12 -24 -33 -43 l-37 -35
-502 0 c-425 1 -503 -1 -507 -13 -3 -8 -1 -17 4 -20 5 -3 236 -6 514 -5 l505
1 34 34 c65 65 60 64 118 18 28 -22 53 -39 54 -37 1 1 9 19 16 38 46 119 138
292 176 331 37 38 54 37 55 -3 3 -129 61 -258 161 -356 29 -29 56 -52 60 -52
5 0 8 -35 8 -78 l0 -79 28 3 c15 1 31 2 35 3 5 1 8 13 7 29 -1 15 -2 37 -1 48
l1 22 73 -25 c57 -21 92 -26 172 -27 55 -1 115 3 133 7 l32 9 0 -210 c0 -194
1 -210 17 -208 16 3 18 21 18 214 0 116 3 212 5 214 3 2 36 19 74 38 41 20 94
58 130 93 l59 58 86 -41 c161 -78 152 -77 206 -35 26 20 51 34 55 33 4 -2 53
-46 108 -98 l100 -95 511 0 c481 0 511 1 511 17 0 17 -30 18 -503 18 l-503 0
-94 89 c-51 48 -90 92 -87 98 9 15 164 88 237 113 63 20 127 35 200 46 19 3
58 9 85 14 28 5 67 12 88 15 88 12 113 16 127 20 8 2 31 7 50 10 19 3 67 12
105 20 88 19 95 19 67 -1 -12 -8 -22 -23 -22 -32 0 -10 3 -13 8 -7 23 32 39
35 66 14 35 -28 34 -3 -2 27 -18 17 -22 24 -11 24 8 0 20 -5 27 -12 9 -9 12
-8 12 4 0 11 16 20 53 29 28 6 104 29 167 50 l115 39 30 -30 30 -30 0 -175 1
-175 89 -86 c50 -47 125 -120 167 -162 62 -61 80 -73 91 -64 14 12 -40 70
-255 273 l-56 54 -1 174 0 174 -31 32 -31 32 38 24 c56 35 90 67 104 100 6 16
15 28 20 27 8 -3 355 -335 465 -446 36 -36 65 -75 69 -92 10 -44 76 -140 128
-186 l47 -42 0 -76 0 -76 106 -102 c59 -57 122 -118 141 -135 35 -35 48 -40
58 -23 3 6 -18 33 -47 61 -29 28 -90 88 -136 132 l-83 81 -2 55 c-1 32 3 55 8
54 6 -2 37 -12 70 -24 125 -44 266 -34 392 28 69 33 161 125 198 196 l30 56
50 -49 50 -49 323 1 c304 0 322 1 322 18 0 17 -18 18 -316 18 l-316 0 -53 52
c-49 49 -52 54 -45 87 5 19 11 37 14 40 3 3 41 6 83 7 l78 1 3 31 3 32 -82 1
c-46 1 -85 4 -88 6 -3 3 -6 16 -8 28 -14 98 -61 186 -142 264 -91 89 -201 131
-336 129 -78 -1 -93 2 -110 19 -11 11 -38 36 -60 55 l-40 35 -163 -1 -163 -1
-57 53 c-52 49 -55 53 -32 54 27 2 41 4 140 21 75 13 77 14 153 32 31 8 60 11
63 6 8 -14 24 -11 19 4 -4 8 17 20 57 35 35 12 68 22 73 22 6 0 27 -16 48 -35
36 -33 57 -38 57 -13 0 6 -15 23 -32 39 -18 15 -30 30 -28 32 3 2 34 20 70 39
36 20 86 55 112 78 46 40 48 40 67 23 20 -17 21 -28 21 -246 l0 -229 106 -102
c58 -55 111 -101 117 -101 30 0 8 31 -83 118 l-100 96 2 200 3 199 135 -130
c74 -72 201 -195 282 -274 l148 -144 112 0 113 0 132 -129 132 -129 133 0 c73
0 171 -1 218 -1 l85 -1 95 -95 c123 -124 158 -151 166 -131 4 10 -37 56 -122
139 l-128 125 -217 0 -216 1 -114 110 -114 111 337 0 338 0 5 -25 c3 -14 8
-37 11 -53 20 -101 136 -248 241 -305 291 -157 659 -8 745 302 82 297 -133
590 -455 617 -253 22 -494 -160 -538 -406 l-12 -65 -458 0 -458 0 -218 211
c-120 116 -265 256 -322 311 l-103 100 17 26 c10 15 20 55 22 90 5 54 2 71
-21 119 -50 106 -173 202 -350 273 -103 42 -278 88 -391 104 -44 7 -93 14
-110 17 -52 10 -447 12 -520 3 -130 -16 -156 -20 -248 -39 -167 -34 -341 -98
-443 -162 -45 -29 -58 -26 -106 24 -33 33 -34 55 -8 136 51 155 72 296 55 372
-3 14 -7 40 -10 59 -2 18 -7 41 -9 50 -3 9 -8 30 -11 46 -2 17 -7 41 -10 55
-3 14 -12 57 -20 95 -11 56 -73 330 -90 395 -9 39 -27 117 -31 137 -2 12 -9
34 -14 48 -5 14 -7 25 -5 25 2 0 0 12 -6 28 -6 15 -12 34 -14 42 -25 107 -115
391 -137 435 -6 11 -41 59 -78 106 l-67 85 0 370 c0 337 -7 625 -18 779 -2 33
-7 110 -10 170 -4 61 -8 126 -10 145 -2 19 -6 73 -9 120 -4 47 -9 92 -11 100
-2 8 -7 49 -10 90 -3 41 -8 82 -10 90 -2 8 -7 44 -10 80 -4 36 -8 72 -10 80
-23 119 -27 171 -15 185 11 13 54 15 284 15 l271 1 137 132 c75 73 193 187
262 254 l125 122 149 -1 149 0 108 104 c59 56 112 102 119 101 6 -1 36 -11 66
-22 234 -86 473 114 426 356 -10 51 -48 116 -91 158 -131 125 -345 116 -468
-19 -96 -105 -101 -289 -11 -395 19 -21 34 -43 34 -47 0 -5 -44 -51 -97 -104
l-98 -95 -137 -1 -138 -2 0 90 c0 84 2 91 25 110 49 39 19 118 -45 118 -35 0
-70 -34 -70 -67 0 -13 12 -36 26 -50 26 -26 27 -32 25 -145 l-1 -66 -107 -105
c-379 -369 -398 -387 -423 -387 -187 -5 -450 -3 -450 4 0 4 36 42 80 83 l80
76 0 142 0 141 124 119 c69 66 133 120 143 121 43 2 50 5 66 33 41 70 -55 139
-110 79 -16 -17 -20 -33 -17 -62 3 -37 1 -41 -121 -159 l-125 -120 0 -140 0
-141 -102 -98 c-56 -53 -104 -96 -106 -94 -2 2 -16 60 -32 128 -16 67 -40 157
-55 198 l-25 75 164 160 c90 88 250 243 356 345 l192 185 216 1 c210 0 217 0
238 -21 30 -30 62 -37 95 -20 29 15 40 37 36 68 -10 57 -89 78 -125 33 -19
-24 -19 -24 -221 -24 l-203 0 74 71 c41 40 136 131 211 203 l137 132 495 0
495 0 34 35 c19 19 42 39 52 44 11 5 106 8 213 8 l194 -2 109 106 c96 92 114
105 140 102 37 -3 78 32 78 66 0 31 -43 73 -75 73 -44 0 -70 -37 -66 -96 1
-14 -29 -50 -100 -117 l-101 -97 -177 0 -176 0 131 128 c72 70 204 198 294
285 l164 157 298 0 299 0 117 114 c64 62 158 153 209 202 l91 89 0 125 c1 215
-2 197 35 205 97 22 182 90 224 182 69 150 0 328 -155 405 -38 18 -64 22 -137
23 -101 0 -149 -17 -223 -80 -132 -114 -130 -336 5 -454 48 -43 135 -81 183
-81 l30 0 0 -155 0 -155 -59 -58 c-32 -31 -120 -118 -196 -191 l-138 -135
-288 0 -288 -1 -3 60 c-6 108 -5 109 65 124 34 8 107 16 162 18 l101 4 139
135 140 134 63 0 c45 0 64 -4 68 -14 7 -19 57 -36 83 -29 30 8 54 50 46 81
-14 56 -88 72 -123 27 -16 -21 -31 -26 -71 -29 -28 -1 -51 1 -52 6 -1 4 -2 49
-2 99 -2 85 0 93 21 107 45 29 36 102 -15 119 -76 27 -130 -61 -69 -113 25
-22 26 -27 26 -125 l0 -103 -82 -79 c-46 -44 -107 -103 -136 -131 -46 -45 -58
-51 -97 -52 -25 -1 -45 1 -45 3 0 3 22 26 48 51 91 88 133 191 128 314 -3 88
-26 156 -73 222 l-35 49 110 106 c60 58 177 171 258 250 l148 144 1 111 0 110
40 7 c228 39 379 230 362 457 -19 252 -273 431 -532 375 -188 -41 -332 -204
-340 -385 -1 -40 3 -93 9 -118 11 -44 10 -45 -19 -66 -26 -17 -30 -26 -29 -62
1 -41 -3 -46 -98 -137 l-98 -95 -157 0 -158 0 141 138 c78 75 192 186 253 245
l112 109 0 277 -1 277 24 13 c48 26 62 110 25 150 -41 43 -95 49 -145 16 -57
-37 -53 -127 8 -167 l23 -15 -1 -263 -1 -263 -101 -96 c-55 -53 -148 -143
-207 -200 l-107 -103 -71 68 c-124 121 -123 94 -10 204 l99 95 -1 109 c-1 119
-8 106 71 136 18 6 46 25 63 43 129 125 39 338 -143 339 -184 2 -279 -210
-151 -338 21 -21 104 -69 115 -66 3 1 6 -46 6 -106 1 -103 0 -108 -25 -131
-14 -13 -56 -53 -93 -89 l-68 -66 -58 59 -58 60 1 252 1 253 41 35 c128 109
180 294 128 449 -18 52 -32 78 -74 135 -14 19 -24 44 -23 55 2 12 -8 37 -20
56 -29 43 -76 58 -124 41 -27 -10 -47 -10 -91 -1 -148 31 -330 -31 -420 -142
l-33 -40 0 219 0 219 48 1 c130 5 254 97 290 215 47 153 -21 309 -166 379 -38
19 -64 23 -137 23 -79 1 -97 -2 -147 -27 -63 -31 -116 -86 -150 -156 -31 -63
-31 -177 -1 -242 28 -62 85 -123 144 -157 l49 -27 0 -236 0 -236 -150 -144
c-83 -79 -152 -145 -154 -147 -1 -1 -2 95 -1 213 1 210 2 215 24 239 23 24 24
32 25 180 1 150 2 155 25 175 49 43 18 127 -44 118 -16 -2 -37 -7 -46 -11 -10
-4 -16 -2 -16 6 0 7 -3 36 -6 63 -8 68 -16 139 -21 206 -5 60 -74 258 -104
298 -29 39 -49 48 -72 33 -17 -10 -26 -9 -58 7 -97 49 -262 62 -344 27 -21 -9
-42 -16 -48 -16 -20 0 -10 37 14 49 46 25 59 91 29 142 -36 61 -135 58 -176
-4 -9 -15 -17 -37 -17 -49 0 -29 33 -83 59 -97 16 -9 18 -18 14 -50 -4 -30
-18 -52 -55 -91 -157 -163 -155 -420 4 -579 l50 -50 1 -157 0 -156 -71 -68
-72 -68 -65 61 -65 61 0 164 c0 163 0 164 25 184 53 42 14 130 -53 120 -62 -9
-81 -75 -35 -118 l26 -24 0 -170 -1 -169 69 -66 c79 -74 79 -69 -5 -147 l-51
-47 -140 136 c-77 74 -174 168 -216 209 -115 111 -111 96 -43 160 33 31 118
113 190 184 104 101 139 129 167 134 62 12 86 71 47 114 -26 27 -70 28 -100 2
-19 -16 -22 -26 -17 -61 5 -42 0 -54 -44 -87 -16 -12 -17 5 -17 217 0 211 1
231 17 236 50 16 44 105 -8 123 -36 13 -87 -10 -95 -43 -7 -29 11 -73 33 -80
15 -5 17 -32 16 -256 l0 -250 -110 -107 c-61 -59 -117 -113 -126 -120 -15 -11
-16 37 -16 552 l0 564 61 22 c73 26 135 61 180 101 l34 29 -1 -50 c-1 -27 3
-52 8 -54 6 -3 6 -5 -1 -5 -21 -2 -1 -75 24 -86 12 -5 22 -15 22 -22 0 -23 20
-14 21 10 2 49 -3 93 -13 105 -8 9 -7 11 6 6 9 -3 16 -1 16 5 0 6 -5 11 -11
11 -5 0 -8 4 -5 9 3 4 6 44 7 87 0 44 7 88 13 99 57 90 79 258 50 370 -50 190
-202 339 -394 386 -72 17 -184 18 -256 2z m-202 -924 c27 -19 28 -23 14 -38
-25 -28 -20 -78 9 -97 l25 -16 0 -342 0 -341 -84 -84 -84 -84 -1 468 0 467 42
43 c23 24 44 43 45 44 2 1 17 -8 34 -20z m213 -94 c33 -8 83 -15 110 -15 l50
0 -1 -599 0 -600 174 -168 c96 -92 207 -200 248 -239 l74 -71 1 -162 c1 -89
-1 -164 -3 -166 -2 -3 -29 20 -60 50 l-56 54 2 72 1 71 -71 66 c-63 60 -71 70
-67 97 9 61 -62 103 -110 65 -56 -44 -26 -120 48 -120 30 0 45 -9 98 -62 l63
-63 0 -70 -1 -70 78 -75 77 -75 0 -156 c0 -118 -3 -156 -12 -156 -7 0 -30 -3
-50 -7 -35 -6 -38 -5 -38 17 0 13 -9 33 -20 45 -45 48 -125 11 -118 -55 3 -26
-2 -39 -27 -63 l-30 -29 0 124 c-1 107 2 126 16 130 49 16 47 99 -2 122 -79
38 -141 -69 -70 -119 20 -14 21 -24 20 -199 0 -124 -5 -202 -15 -239 -8 -30
-14 -71 -14 -92 0 -31 -7 -45 -33 -71 -19 -18 -58 -56 -88 -85 l-55 -52 -71
67 -71 68 0 115 c0 109 1 116 23 135 54 45 29 119 -40 119 -69 0 -96 -74 -43
-117 21 -18 22 -27 23 -143 l0 -125 80 -77 80 -77 -1 -129 -1 -129 -93 -89
c-51 -48 -95 -86 -98 -84 -2 3 -6 25 -8 48 -6 79 -15 183 -19 223 -3 22 -9 94
-15 160 -6 66 -13 129 -15 140 -1 12 -11 85 -20 163 l-18 142 87 81 86 82 0
68 c0 66 1 70 38 107 47 47 82 71 113 77 32 6 121 104 149 162 86 183 -7 400
-202 469 -65 23 -168 24 -230 3 -29 -10 -54 -16 -56 -14 -2 2 19 26 48 53 l51
49 1 134 1 133 38 39 c30 31 46 39 80 41 73 6 102 64 54 111 -29 30 -68 32
-95 5 -22 -22 -21 -21 -24 -65 -1 -22 -14 -42 -46 -71 l-43 -41 -1 -136 -1
-135 -50 -47 c-27 -26 -71 -68 -98 -93 l-47 -46 0 315 1 316 104 102 103 101
1 346 0 345 25 24 c14 13 26 31 26 40 0 18 -1 18 75 0z m-607 -422 l0 -337
104 -100 103 -101 -2 -300 c0 -165 -2 -306 -2 -313 -1 -8 -44 28 -97 80 l-95
94 0 131 1 130 -49 48 c-34 33 -47 53 -44 66 3 11 0 32 -7 49 -16 38 -65 50
-104 25 -57 -37 -18 -132 50 -122 27 5 38 -1 75 -39 l43 -44 -1 -129 -1 -130
117 -113 116 -113 -1 -185 c-1 -179 -2 -187 -28 -237 -30 -58 -58 -165 -90
-335 l-21 -116 -73 69 -72 69 0 224 0 224 29 29 c22 22 28 36 24 56 -11 59
-86 80 -125 35 -24 -28 -18 -75 15 -100 21 -16 22 -24 22 -152 0 -75 -2 -136
-5 -136 -3 0 -23 18 -44 39 -30 31 -36 43 -28 56 19 35 -3 78 -48 94 -26 8
-34 6 -60 -15 -18 -16 -30 -35 -30 -50 0 -35 41 -73 74 -70 20 3 38 -10 84
-58 l59 -61 -3 -64 -2 -63 88 -85 c96 -92 90 -78 75 -186 -3 -23 -7 -58 -10
-77 -2 -19 -7 -51 -9 -70 -3 -19 -7 -64 -11 -100 -7 -85 -15 -122 -27 -137
-15 -18 -28 -16 -28 4 0 21 -9 12 -15 -15 -3 -19 21 -39 33 -27 3 3 -1 5 -8 5
-7 0 -10 3 -7 6 4 4 13 2 21 -5 18 -15 9 -52 -10 -44 -8 3 -14 0 -14 -7 0 -6
-4 -9 -8 -6 -4 2 -8 -4 -8 -15 0 -13 7 -19 23 -19 15 0 21 -6 20 -19 0 -11 -4
-18 -8 -16 -3 3 -15 -3 -25 -11 -14 -11 -15 -17 -6 -20 6 -3 9 -11 5 -17 -4
-6 0 -8 10 -4 23 9 23 -26 0 -44 -15 -12 -16 -12 -8 1 7 13 6 13 -6 1 -12 -11
-12 -14 0 -18 11 -5 11 -7 0 -14 -11 -7 -9 -9 6 -9 18 0 20 -6 17 -50 -2 -28
-8 -50 -12 -48 -5 2 -49 43 -99 91 l-90 88 0 128 0 128 80 76 79 76 0 122 c0
117 1 123 25 145 34 31 33 76 -1 103 -35 27 -59 26 -89 -4 -32 -32 -32 -63 3
-101 26 -29 27 -33 25 -134 -1 -60 -7 -112 -14 -124 -7 -12 -38 -45 -69 -74
l-58 -53 -104 100 c-126 122 -130 137 -53 197 54 41 64 51 100 105 49 75 62
205 29 290 -18 47 -63 109 -104 146 -81 73 -234 103 -342 66 -67 -23 -66 -22
30 71 60 58 63 62 62 106 -3 93 -3 95 63 159 51 50 68 61 97 61 40 1 64 16 74
46 19 59 -50 109 -105 77 -27 -16 -33 -32 -30 -78 1 -13 -23 -44 -69 -88 l-71
-68 2 -71 2 -71 -57 -54 c-31 -29 -57 -52 -57 -51 -1 2 -3 76 -4 166 l-1 162
227 221 c125 121 237 229 248 239 21 17 21 25 21 519 0 275 3 501 8 502 68 6
166 46 225 91 29 21 52 38 54 38 1 0 2 -152 1 -337z m1660 258 c5 -31 -11 -45
-42 -37 -19 5 -26 13 -26 30 0 42 63 49 68 7z m-2844 -971 l-2 -235 166 -162
167 -161 0 -219 1 -218 -34 -38 c-58 -66 -76 -120 -77 -224 l0 -92 -27 26
c-27 26 -28 29 -28 142 0 110 1 116 25 136 35 29 39 68 10 99 -30 33 -69 33
-100 1 -32 -31 -32 -59 2 -93 27 -26 27 -30 28 -149 l0 -123 100 -100 c100
-99 100 -100 100 -149 0 -50 0 -50 91 -138 359 -346 559 -540 636 -615 l88
-87 -6 -73 c-4 -40 -8 -86 -9 -103 -5 -60 -4 -58 -19 -43 -180 172 -235 232
-226 249 14 26 12 44 -7 68 -25 30 -75 35 -102 10 -46 -43 -17 -119 46 -119
15 0 39 -15 62 -37 21 -21 84 -83 140 -137 l101 -99 -4 -46 c-2 -25 -5 -71 -5
-102 l-1 -56 -87 0 c-105 -1 -123 10 -116 65 4 29 0 41 -16 56 -49 45 -129 5
-117 -58 9 -41 27 -57 67 -58 18 -1 42 -9 53 -20 11 -10 29 -18 40 -19 12 0
54 -1 95 -2 l74 -2 -3 -70 c-1 -38 -4 -88 -5 -110 -1 -22 -3 -67 -4 -99 l-1
-60 -42 43 c-77 77 -186 118 -301 113 -47 -3 -48 -2 -137 84 l-90 87 0 85 0
85 108 103 c80 78 114 104 133 104 67 0 95 74 45 116 -51 45 -123 3 -112 -65
5 -33 1 -39 -80 -118 -47 -46 -87 -83 -90 -83 -2 0 -4 123 -4 274 0 263 1 275
19 281 39 12 44 78 9 108 -48 41 -125 2 -114 -57 3 -17 16 -39 28 -49 21 -18
21 -22 22 -373 1 -196 -2 -358 -6 -360 -4 -3 -67 54 -140 125 -73 71 -175 169
-226 219 l-93 90 0 223 c0 123 0 241 0 262 1 33 9 45 76 109 l75 72 0 57 c0
50 4 61 29 87 16 16 29 35 27 43 -9 55 -39 80 -86 72 -32 -5 -48 -21 -54 -57
-4 -22 1 -35 23 -56 24 -25 28 -35 25 -79 -2 -49 -6 -55 -69 -116 -38 -38 -71
-62 -78 -58 -6 4 -68 62 -137 129 -69 67 -158 153 -198 192 l-72 70 12 46 c11
40 31 64 160 187 l148 141 2 171 3 171 35 9 c97 25 170 122 170 227 0 179
-197 291 -361 206 -27 -14 -50 -26 -51 -26 -2 0 -4 54 -5 119 l-2 119 40 39
c26 26 46 37 62 35 34 -4 77 33 77 67 0 63 -78 94 -120 49 -16 -17 -21 -32
-17 -59 4 -28 0 -40 -19 -58 -16 -16 -24 -19 -25 -10 -1 8 -2 34 -4 59 -1 25
-6 88 -9 140 -4 52 -8 108 -9 124 -2 25 4 33 35 49 20 11 57 37 83 58 l45 37
83 -81 82 -82 -1 -235z m-1020 184 c22 -22 20 -41 -6 -55 -18 -10 -24 -8 -40
11 -17 21 -17 24 -2 41 21 23 28 24 48 3z m4572 -253 c-1 -82 -4 -153 -9 -157
-4 -4 -7 19 -8 52 0 32 -3 108 -5 168 -5 93 -3 108 9 98 11 -9 13 -44 13 -161z
m-646 109 c30 -10 55 -25 56 -32 1 -37 17 -59 47 -66 18 -3 36 -5 41 -4 5 2
21 -9 37 -24 28 -26 28 -28 24 -133 -2 -58 -4 -143 -4 -189 l-1 -83 -30 35
c-82 93 -228 100 -310 15 -30 -32 -60 -97 -60 -133 -1 -108 92 -206 194 -206
l34 0 1 -177 1 -178 119 -117 120 -116 21 -88 21 -89 -128 -123 c-70 -68 -155
-151 -189 -184 l-61 -59 -37 35 -38 35 25 43 c48 84 62 166 42 253 -14 62 -60
149 -95 178 -25 22 -25 23 -22 162 3 133 5 141 28 163 66 63 -17 158 -89 102
-36 -29 -36 -71 0 -99 26 -21 26 -24 26 -135 0 -63 -4 -119 -7 -125 -5 -8 -15
-7 -35 4 -15 7 -49 19 -74 26 l-47 11 -1 47 c0 25 0 183 0 349 l1 304 59 56
c33 32 107 103 165 160 l106 102 0 150 c0 83 1 150 3 150 1 -1 27 -9 57 -20z
m216 -60 c-1 -38 -9 -50 -20 -31 -8 12 4 71 14 71 4 0 7 -18 6 -40z m-4786
-260 c-15 -11 -26 -15 -29 -8 -4 12 17 28 39 28 10 0 7 -7 -10 -20z m799 -359
l208 -200 2 -57 c1 -32 2 -60 3 -63 2 -25 -4 -30 -24 -22 -43 16 -88 -18 -88
-67 0 -32 33 -65 66 -64 62 0 64 -4 89 -178 4 -24 8 -47 10 -51 2 -3 7 -21 10
-40 8 -49 36 -130 54 -159 24 -38 43 -50 64 -38 10 5 22 8 27 6 5 -2 96 -88
203 -191 l195 -188 0 -266 c1 -159 5 -268 10 -272 6 -3 126 -119 268 -257 143
-138 292 -283 332 -321 l72 -69 -34 -17 c-19 -9 -54 -33 -77 -54 -112 -101
-145 -243 -95 -400 5 -16 0 -28 -19 -47 l-26 -26 -55 46 c-30 26 -54 49 -55
53 0 3 -2 79 -2 168 l-2 161 -75 72 c-290 276 -339 328 -333 349 14 54 -30 98
-85 84 -81 -20 -61 -133 23 -133 34 0 25 7 313 -272 l123 -119 -3 -139 -3
-140 -46 37 c-60 49 -93 75 -198 150 -47 34 -91 67 -97 72 -7 5 -10 30 -9 56
2 34 10 54 29 74 56 59 15 120 -75 112 -21 -1 -48 -57 -41 -83 2 -10 15 -26
28 -35 18 -12 24 -24 24 -54 0 -22 -3 -39 -6 -39 -3 0 -31 15 -62 33 -118 68
-267 127 -323 127 l-27 0 0 274 0 274 109 103 109 102 -1 56 c-2 114 -1 118
26 125 44 11 104 74 119 126 31 104 -9 193 -108 243 -85 43 -185 21 -250 -55
-100 -117 -28 -304 125 -324 l49 -7 0 -75 0 -76 -97 -93 c-54 -51 -101 -93
-105 -93 -3 0 -71 63 -150 140 l-143 140 100 98 100 99 0 178 0 177 27 29 c33
34 35 57 7 93 -35 44 -115 25 -123 -29 -4 -24 23 -75 40 -75 9 0 12 -48 12
-177 l1 -178 -87 -87 c-48 -49 -90 -88 -93 -88 -4 0 -3 15 1 33 5 17 12 46 14
62 3 17 8 41 11 55 3 14 8 45 11 70 3 25 7 56 10 70 17 104 23 500 10 670 -25
336 -93 571 -167 587 -25 5 -27 9 -32 71 -2 37 -12 86 -20 110 -8 24 -13 41
-10 38 3 -2 98 -95 212 -205z m4721 114 c-18 -47 -13 -162 9 -235 6 -19 11
-36 11 -36 0 -1 -15 -5 -33 -8 -43 -8 -78 -46 -82 -88 -3 -35 9 -61 47 -100
l23 -23 -1 -568 -1 -568 -34 -35 c-18 -19 -36 -33 -40 -32 -4 2 -49 43 -98 91
-76 74 -91 94 -92 120 0 18 -1 96 -1 175 0 142 0 143 26 163 40 32 34 89 -13
113 -72 38 -139 -62 -76 -112 l25 -20 0 -182 0 -182 42 -39 c23 -21 40 -39 37
-39 -2 0 -20 5 -39 11 -60 18 -73 20 -140 19 -70 0 -105 -5 -145 -20 -47 -18
-51 -14 -50 54 0 56 4 67 28 91 41 41 35 85 -14 110 -74 39 -138 -57 -75 -111
24 -21 26 -29 26 -102 l0 -78 -44 -33 c-99 -74 -155 -182 -164 -311 -4 -74 -8
-87 -29 -103 -70 -55 -82 -166 -25 -236 l31 -38 -106 -103 c-95 -93 -105 -100
-98 -72 27 123 5 236 -67 351 -11 19 -4 28 89 118 l102 98 -1 262 0 263 68 66
c38 36 114 109 169 163 55 53 105 100 112 104 8 5 18 -4 28 -23 8 -16 27 -37
40 -46 23 -15 27 -15 51 1 41 26 92 163 118 315 3 19 8 46 11 59 2 14 7 45 10
70 3 25 7 55 9 66 3 11 5 30 5 43 1 17 7 22 29 22 15 0 32 4 38 8 18 12 33 47
29 68 -2 10 -4 23 -4 27 -1 4 -19 16 -41 26 -22 10 -38 20 -36 22 2 2 6 38 8
79 l3 75 144 140 c79 77 151 148 160 158 22 25 32 21 21 -8z m-744 -182 c2
-64 15 -282 18 -300 2 -10 7 -54 10 -98 7 -75 10 -99 22 -167 2 -16 2 -28 0
-28 -3 0 -46 40 -98 89 l-92 90 -1 166 c0 91 2 169 5 173 3 4 21 16 40 26 34
19 80 64 80 79 0 4 3 7 8 7 4 0 8 -17 8 -37z m-3316 -68 c23 -8 46 -13 50 -10
17 11 21 -18 22 -172 l0 -157 -93 -89 c-125 -118 -153 -144 -147 -132 4 6 9
34 13 64 4 30 8 61 10 70 2 9 6 44 10 76 4 33 8 71 10 83 4 22 15 174 20 267
2 22 3 44 4 48 0 5 14 -1 30 -13 16 -11 48 -27 71 -35z m-2233 33 c23 -32 -11
-73 -44 -52 -22 14 -25 42 -5 54 23 13 38 12 49 -2z m7772 -20 c11 -28 -5 -50
-32 -46 -29 4 -44 32 -28 52 19 23 50 20 60 -6z m-1439 -128 c7 -14 6 -23 -6
-35 -34 -34 -83 8 -50 44 20 22 41 18 56 -9z m-5064 -72 c-8 -45 -18 -111 -22
-145 -6 -54 -9 -62 -31 -68 -51 -12 -60 -105 -11 -120 15 -6 18 -17 18 -86 l0
-79 -105 -102 -104 -101 -3 -143 -3 -144 -40 37 c-27 25 -40 46 -41 65 -1 15
-2 35 -3 43 -1 16 -48 43 -68 39 -7 -1 -17 -2 -23 -3 -20 -2 -47 -43 -44 -67
4 -40 32 -64 75 -64 33 0 47 -8 94 -52 l55 -53 0 -80 0 -80 -79 -79 -79 -79 0
55 1 54 -94 91 c-52 50 -139 134 -193 186 l-99 96 69 66 c38 37 115 112 172
167 l102 100 0 172 0 172 89 87 c68 67 95 87 117 88 33 1 44 3 99 18 47 12
155 78 155 93 0 6 3 9 6 6 3 -4 -1 -44 -10 -90z m5179 2 c11 -19 119 -67 173
-79 29 -6 76 -11 105 -11 50 0 54 -2 114 -62 l63 -62 0 -174 0 -173 111 -107
c62 -59 138 -133 170 -164 l57 -57 -96 -94 c-53 -52 -140 -137 -193 -188 l-97
-94 2 -48 c2 -26 -1 -46 -5 -45 -4 2 -40 34 -79 72 l-72 68 -1 79 -1 79 57 58
c51 52 61 58 91 54 42 -5 76 25 76 67 0 92 -134 89 -136 -3 0 -28 -9 -45 -39
-76 -21 -21 -41 -38 -44 -36 -3 2 -6 67 -5 145 l1 141 -106 102 -106 103 0 78
c0 53 4 77 12 77 17 0 43 40 43 67 0 57 -92 87 -124 41 -24 -34 -20 -73 9 -96
23 -18 25 -26 25 -102 l0 -83 105 -101 105 -101 0 -252 0 -252 98 -95 97 -95
0 -225 0 -225 -95 -92 c-52 -50 -148 -143 -213 -206 -90 -88 -126 -116 -150
-119 -18 -3 -42 -7 -53 -9 -12 -3 -24 1 -26 8 -2 6 -3 114 -3 239 l2 227 128
123 c118 114 130 123 168 124 95 4 104 133 9 136 -45 1 -72 -26 -72 -72 0 -34
-9 -46 -135 -166 l-135 -129 0 -252 0 -252 -54 -26 c-79 -38 -153 -113 -195
-199 l-37 -72 -127 -1 c-120 0 -127 1 -115 17 7 10 47 62 89 116 170 221 242
374 194 414 -15 12 -71 10 -107 -5 -15 -6 -17 -1 -15 36 3 42 4 43 51 55 167
43 297 177 327 339 17 91 4 175 -41 267 l-23 47 51 51 c29 28 52 57 53 63 0 7
1 269 1 584 l1 572 36 39 c36 39 57 42 76 12z m-5534 -20 c30 0 23 -11 -41
-75 l-60 -59 0 81 0 82 41 -14 c23 -8 50 -15 60 -15z m3092 -15 c31 -20 103
-44 138 -47 16 -1 30 -7 32 -13 2 -5 3 -50 2 -98 l-1 -88 -67 -64 c-37 -36
-70 -65 -75 -65 -4 0 -8 8 -9 18 -3 54 -37 219 -67 323 l-23 79 23 -15 c13 -8
34 -22 47 -30z m2897 -77 l0 -52 -40 39 c-40 39 -41 49 -5 58 43 10 45 8 45
-45z m-2670 22 c0 -5 -5 -10 -11 -10 -5 0 -7 5 -4 10 3 6 8 10 11 10 2 0 4 -4
4 -10z m449 -272 c-2 -2 -27 -23 -54 -48 l-50 -45 49 52 c28 29 52 50 55 48 2
-3 2 -6 0 -7z m-3453 -306 c1 -94 7 -187 19 -302 8 -77 37 -223 56 -287 41
-133 84 -181 133 -149 14 9 33 30 42 47 19 37 1 49 188 -133 l131 -126 -1
-270 c0 -239 -2 -271 -17 -286 -44 -44 -15 -183 71 -338 23 -42 42 -80 42 -83
0 -3 -40 -5 -89 -5 l-88 0 -18 48 c-38 101 -129 198 -226 241 l-42 19 -1 249
-2 248 -89 86 c-50 48 -110 106 -134 129 -38 35 -45 48 -43 75 4 62 -63 96
-116 59 -15 -10 -22 -25 -22 -48 0 -43 29 -69 77 -69 33 0 48 -12 164 -126
l129 -126 0 -150 c1 -82 1 -187 0 -233 l0 -83 -27 5 c-16 2 -41 5 -58 5 -31 1
-67 33 -352 312 l-101 100 0 224 1 224 96 93 96 93 1 254 1 253 79 78 c43 43
84 79 89 79 6 1 10 -42 11 -107z m1683 42 c54 -16 162 -16 204 1 14 6 17 2 17
-27 0 -31 12 -46 113 -144 l112 -109 -1 -97 c0 -54 -3 -101 -7 -104 -4 -4 -16
1 -26 12 -10 10 -120 118 -245 239 -212 205 -269 266 -234 252 7 -3 37 -13 67
-23z m1574 -381 l-118 -112 -3 107 -3 107 83 81 82 80 38 -75 38 -76 -117
-112z m3458 197 c60 -56 118 -88 202 -109 l72 -19 2 -93 2 -94 -77 -78 c-42
-43 -89 -87 -104 -98 l-28 -20 -75 72 c-74 71 -75 73 -75 122 0 41 4 53 25 69
47 37 18 118 -42 118 -64 0 -96 -80 -48 -118 21 -17 25 -28 25 -74 l0 -54 80
-78 c44 -43 80 -83 80 -88 0 -5 -12 -20 -27 -34 -16 -14 -74 -71 -131 -126
l-103 -100 -27 18 c-42 28 -99 54 -132 61 -42 8 -21 33 26 31 100 -4 145 130
61 183 -83 52 -191 -26 -157 -115 9 -24 6 -30 -22 -57 -23 -21 -43 -29 -68
-29 -84 0 -211 -60 -282 -132 -42 -43 -86 -115 -99 -161 -10 -37 -11 -38 -52
-35 l-42 3 -1 278 0 277 150 147 150 147 188 1 187 1 103 102 c84 83 109 102
133 102 17 0 37 5 45 10 8 5 16 10 17 10 1 0 21 -18 44 -40z m-2727 -134 l36
-35 0 -258 0 -258 -89 -89 -89 -89 -58 36 c-67 41 -119 61 -185 71 l-46 7 1
169 c1 167 1 169 27 197 14 15 25 35 24 43 -1 8 -3 22 -3 31 -3 26 -60 49 -92
37 -27 -9 -48 -40 -44 -65 1 -7 2 -17 3 -23 0 -5 11 -19 24 -30 21 -20 22 -28
22 -191 l1 -169 -36 -6 c-19 -3 -57 -12 -83 -20 -54 -17 -72 -12 -57 15 5 10
7 29 5 42 -15 75 -122 73 -140 -3 -9 -36 31 -78 75 -78 16 0 30 -4 30 -10 0
-5 -4 -10 -9 -10 -15 0 -101 -81 -130 -124 -16 -23 -39 -71 -52 -107 l-23 -66
-78 0 c-43 -1 -78 2 -79 5 -2 12 -6 76 -9 140 l-4 64 139 133 c115 111 145
134 177 139 56 9 76 61 41 105 -51 61 -152 5 -120 -67 10 -21 0 -33 -114 -142
-68 -65 -125 -117 -126 -116 -2 1 -6 54 -9 117 l-6 114 252 245 c139 135 257
247 262 249 5 1 17 -3 26 -11 105 -90 323 -89 445 3 28 22 52 39 53 39 1 0 18
-15 38 -34z m-1609 -106 c-3 -5 -12 -10 -18 -10 -7 0 -6 4 3 10 19 12 23 12
15 0z m-3458 -322 c17 -28 3 -58 -28 -58 -25 0 -44 37 -28 56 14 17 45 18 56
2z m7476 -38 c-6 -24 -29 -33 -54 -20 -28 16 -22 51 11 62 21 8 49 -20 43 -42z
m-1865 -564 c34 -8 62 -11 62 -8 0 3 6 0 12 -6 7 -7 13 -35 14 -63 l1 -50 -61
-36 c-80 -49 -216 -143 -293 -205 -69 -55 -65 -57 -65 42 1 80 1 80 13 80 18
0 38 32 39 62 0 30 -40 68 -73 68 -29 0 -67 -39 -67 -67 0 -32 17 -63 35 -63
10 0 15 -10 15 -27 1 -16 1 -61 2 -101 l1 -73 -39 -32 c-21 -17 -41 -34 -44
-37 -3 -3 -36 -32 -75 -65 -38 -33 -96 -86 -130 -117 -33 -31 -61 -55 -63 -53
-2 1 -3 91 -4 199 l0 196 50 55 c27 30 114 116 192 192 l142 138 67 0 c38 0
79 7 96 16 28 13 33 13 70 -8 22 -12 68 -29 103 -37z m1233 55 c3 -1 9 -27 12
-58 9 -85 23 -125 70 -195 67 -100 190 -178 302 -191 l30 -4 3 -84 3 -85 -242
-235 c-132 -129 -246 -235 -253 -237 -8 -2 -11 29 -10 108 2 105 3 112 28 137
14 14 26 36 26 48 0 36 -32 68 -68 68 -26 0 -31 5 -36 33 -16 80 -90 190 -163
240 l-36 24 136 0 c132 0 137 -1 161 -25 59 -59 149 2 111 74 -25 49 -73 55
-113 14 l-27 -28 -165 1 c-153 1 -240 9 -240 21 0 3 84 87 186 187 196 191
207 198 285 187z m-2663 -86 c2 -61 37 -162 77 -221 l37 -53 -59 -57 c-32 -31
-86 -84 -120 -117 -36 -34 -63 -54 -64 -46 -1 8 -2 28 -4 44 -1 17 -6 100 -9
185 -4 85 -9 190 -12 232 l-4 77 79 -2 79 -1 0 -41z m312 -389 c80 -24 220
-17 298 16 l62 26 0 -208 c0 -180 -2 -211 -16 -225 -16 -15 -19 -14 -52 17
-79 73 -101 98 -92 103 17 11 11 64 -10 85 -41 41 -120 12 -120 -45 0 -33 45
-79 70 -72 13 3 39 -15 89 -62 l69 -66 -118 -121 -118 -122 -41 42 c-50 51
-56 96 -16 128 49 38 18 118 -45 118 -64 0 -94 -79 -45 -118 19 -15 25 -29 25
-60 0 -36 6 -47 49 -89 l50 -48 -42 -46 c-111 -120 -282 -331 -326 -399 -8
-14 -18 -27 -22 -30 -3 -3 -17 -25 -32 -50 l-27 -45 0 75 c-1 41 -4 173 -7
294 l-5 218 48 49 49 50 0 129 1 130 71 70 c50 49 80 70 97 70 67 0 105 55 72
105 -21 32 -57 40 -94 21 -31 -16 -45 -53 -30 -79 6 -12 -12 -35 -72 -93 l-80
-78 0 -130 c0 -127 -1 -130 -27 -158 -15 -15 -30 -28 -33 -28 -4 0 -7 30 -7
68 -1 37 -4 129 -7 206 l-7 138 148 143 147 142 48 -28 c26 -15 70 -35 98 -43z
m-2680 -297 l19 -24 -32 -7 c-35 -7 -67 -40 -67 -70 0 -10 12 -31 27 -46 l27
-27 1 -162 0 -162 -186 1 -186 0 -53 49 c-29 27 -51 51 -49 53 2 2 24 15 49
29 108 62 197 197 207 313 2 32 6 64 8 69 2 7 44 10 110 10 101 -1 108 -2 125
-26z m4025 -3 c2 -12 7 -46 10 -77 12 -112 103 -249 199 -300 25 -13 46 -26
46 -30 0 -3 -21 -26 -47 -51 l-48 -45 -187 -1 -188 -2 0 170 c0 157 1 169 19
175 24 7 41 53 30 82 -17 45 -85 57 -119 21 -28 -30 -25 -64 7 -94 l27 -25 2
-162 1 -162 -137 -135 c-75 -74 -195 -191 -266 -259 l-129 -125 -3 177 -2 178
26 22 c50 43 21 121 -45 119 -27 -1 -13 16 158 186 169 169 322 332 329 350 1
4 72 8 157 8 149 0 156 0 160 -20z m-3085 -14 c0 -13 92 -101 111 -107 10 -3
22 -20 28 -38 7 -18 21 -39 32 -48 15 -11 20 -24 17 -47 l-3 -32 -112 113
c-62 61 -115 115 -119 119 -3 3 3 16 13 27 18 22 33 27 33 13z m604 -174 c-2
-73 -7 -134 -9 -137 -3 -2 -19 11 -36 29 -29 30 -31 38 -33 104 l-1 71 40 32
c22 18 41 33 42 33 1 0 0 -59 -3 -132z m-2583 -55 c47 -64 141 -134 214 -158
62 -21 189 -27 251 -13 27 6 37 2 73 -32 22 -21 41 -41 41 -43 0 -3 -117 -5
-260 -5 l-260 0 -73 68 -72 68 2 128 c1 71 2 136 3 144 0 8 11 -13 24 -47 13
-33 38 -83 57 -110z m5950 12 l-1 -137 -71 -67 -72 -68 -266 -1 -265 -2 43 44
42 43 55 -13 c224 -52 471 98 519 315 12 58 17 25 16 -114z m-4767 44 c73 -92
164 -193 288 -320 37 -38 65 -75 62 -82 -3 -8 8 -26 23 -41 l28 -28 1 -174 c0
-96 -3 -173 -8 -172 -6 3 -330 313 -478 459 l-47 46 -1 172 c0 94 3 169 8 166
8 -5 52 47 47 57 -4 8 57 -58 77 -83z m1288 -19 l-4 -70 55 -55 55 -55 -5
-187 c-3 -104 -6 -189 -7 -190 -1 -2 -31 36 -66 84 -76 102 -161 205 -240 291
-59 62 -59 62 -56 119 2 32 8 59 15 61 6 2 17 9 24 16 6 6 37 12 67 13 30 1
80 10 110 21 30 11 55 21 55 21 0 1 -1 -30 -3 -69z m1721 -374 c-4 -29 -1 -39
22 -60 l28 -26 1 -196 1 -195 -224 -217 c-123 -119 -255 -247 -292 -284 -38
-38 -72 -68 -76 -68 -4 0 -19 16 -33 35 -47 63 -91 70 -141 21 -36 -35 -70
-97 -102 -186 -3 -8 -6 30 -6 85 l-1 100 106 103 106 102 87 0 87 0 54 55 c43
44 61 55 86 55 65 0 93 82 42 120 -29 20 -47 21 -80 4 -31 -16 -45 -53 -29
-81 8 -17 2 -27 -39 -68 -47 -47 -51 -48 -112 -50 -35 -1 -68 0 -74 2 -7 3
-11 48 -12 131 l0 127 42 44 c43 45 173 148 215 171 13 7 40 29 60 49 20 20
54 51 76 69 65 53 156 135 184 164 14 15 27 27 28 28 1 0 -1 -15 -4 -34z
m-2488 -152 c65 -67 324 -269 465 -363 52 -35 97 -67 100 -71 3 -5 5 -41 4
-82 l-1 -73 -69 -3 -69 -3 -51 49 c-46 44 -50 51 -46 88 4 45 -15 69 -60 78
-34 6 -78 -32 -78 -69 0 -33 33 -65 68 -65 21 0 45 -15 87 -55 33 -30 68 -55
80 -56 11 0 50 -1 87 -2 l67 -2 105 -103 106 -104 -34 -33 c-19 -18 -48 -63
-66 -99 -35 -75 -30 -75 -105 -1 -47 46 -495 479 -600 580 l-70 67 0 199 -1
199 35 -32 c19 -18 40 -38 46 -44z m-185 -315 c27 -24 158 -150 291 -279 133
-129 297 -288 364 -352 l121 -118 -1 -122 c-1 -112 -29 -322 -45 -341 -3 -4
-92 77 -197 180 l-191 188 3 133 2 133 -128 126 c-107 105 -126 129 -120 146
27 72 -61 129 -117 77 -46 -43 -18 -107 52 -119 27 -5 62 -33 155 -124 l121
-118 0 -139 0 -139 80 -77 c44 -43 77 -80 74 -83 -3 -3 -110 -6 -237 -6 l-232
0 -61 60 c-33 33 -127 124 -208 203 -81 79 -146 144 -145 145 2 1 30 15 62 31
221 110 270 386 102 565 -26 28 -57 54 -69 57 -21 8 -21 8 2 13 13 3 80 6 149
5 l125 -1 48 -44z m2036 -156 l0 -138 -56 -53 c-30 -30 -72 -70 -92 -90 l-38
-36 0 180 0 180 88 46 c48 25 90 47 93 47 3 1 6 -61 5 -136z m-1063 -73 c4 -3
6 -58 5 -121 l-3 -114 -92 89 -93 89 0 73 0 73 88 -41 c48 -22 91 -44 95 -48z
m-464 -4510 l22 -40 -51 -50 c-29 -28 -53 -50 -55 -50 -3 0 22 99 41 163 8 26
18 21 43 -23z m22 -190 c-6 -43 -3 -67 12 -110 11 -30 25 -62 30 -70 6 -8 -2
-3 -18 11 -17 14 -45 39 -64 55 -76 64 -75 59 -12 119 31 29 57 53 58 52 1 -1
-2 -27 -6 -57z m-405 -425 c27 -26 68 -60 91 -78 23 -18 43 -35 43 -38 0 -4
-32 -36 -70 -72 -58 -54 -79 -67 -121 -76 -29 -6 -53 -10 -53 -9 -1 2 -10 28
-19 58 -9 30 -28 69 -41 85 l-25 30 72 72 c40 39 72 72 73 72 0 1 23 -19 50
-44z m238 -194 c-8 -9 -104 -29 -104 -22 0 3 14 18 32 32 29 26 33 26 55 12
13 -9 21 -18 17 -22z m3835 -806 c63 -60 145 -140 183 -178 l68 -67 -35 -53
c-39 -57 -73 -153 -77 -217 l-2 -40 -34 32 c-19 18 -98 94 -176 169 -78 75
-173 168 -213 205 -70 68 -72 70 -77 129 -3 33 -10 74 -15 92 -5 17 -8 33 -6
35 2 2 63 3 137 3 l133 0 114 -110z m-7275 24 c-34 -35 -36 -36 -31 -3 4 29
23 45 44 37 11 -4 8 -13 -13 -34z m7715 -81 c33 -31 40 -43 29 -49 -7 -5 -18
-9 -24 -9 -5 0 -41 -18 -78 -41 l-68 -41 -65 63 c-36 35 -76 74 -89 87 -13 13
-24 25 -24 27 0 2 62 3 138 3 l137 0 44 -40z"/>
<path d="M6704 12225 c-16 -13 -26 -26 -23 -29 3 -4 17 2 30 13 24 19 24 19
46 -1 25 -24 43 -18 23 7 -27 32 -45 35 -76 10z"/>
<path d="M6703 12176 c-15 -13 -25 -28 -21 -32 5 -4 17 1 28 11 18 16 21 17
44 1 46 -30 52 -11 6 22 l-29 22 -28 -24z"/>
<path d="M6703 12121 c-34 -28 -28 -46 6 -22 l29 21 26 -21 c20 -16 26 -17 26
-6 0 14 -41 47 -57 47 -4 -1 -18 -9 -30 -19z"/>
<path d="M6700 12065 c-29 -31 -21 -42 11 -16 23 19 24 19 51 -1 34 -23 38 -5
6 23 -30 24 -40 24 -68 -6z"/>
<path d="M5334 9715 c-16 -13 -26 -27 -22 -31 5 -4 17 1 28 11 20 18 22 18 51
1 31 -18 31 -18 20 3 -20 37 -44 42 -77 16z"/>
<path d="M5333 9666 c-35 -30 -26 -44 10 -16 15 12 28 16 32 10 3 -5 15 -15
26 -20 30 -17 23 6 -10 29 l-30 21 -28 -24z"/>
<path d="M5339 9622 c-32 -35 -35 -48 -6 -29 32 21 41 21 61 2 8 -8 17 -11 20
-6 4 5 -7 19 -23 30 -34 25 -32 24 -52 3z"/>
<path d="M5333 9566 c-34 -30 -26 -44 9 -17 25 20 25 20 46 1 12 -11 23 -16
26 -11 5 8 -15 30 -41 45 -6 3 -24 -5 -40 -18z"/>
<path d="M4355 11260 c-3 -6 -11 -8 -16 -5 -5 4 -8 -3 -6 -14 4 -25 17 -40 17
-20 0 12 2 12 9 0 7 -11 11 -10 20 7 8 15 7 23 -3 31 -10 8 -16 9 -21 1z"/>
<path d="M4330 11169 c0 -9 35 -39 46 -39 6 0 10 11 10 24 0 21 -4 25 -28 23
-15 -1 -28 -5 -28 -8z"/>
<path d="M4330 11141 c0 -5 5 -13 10 -16 6 -3 10 -2 10 4 0 5 -4 13 -10 16 -5
3 -10 2 -10 -4z"/>
<path d="M4335 11080 c-3 -5 0 -10 7 -10 9 0 9 -3 -2 -10 -17 -11 -16 -11 21
-14 20 -2 25 2 25 21 0 17 -6 23 -22 23 -13 0 -26 -4 -29 -10z"/>
<path d="M4339 11008 c-10 -43 6 -64 34 -43 17 12 14 45 -5 45 -5 0 -7 -4 -4
-8 2 -4 0 -14 -6 -22 -8 -12 -9 -12 -4 2 3 10 1 20 -4 23 -6 4 -10 5 -11 3z"/>
<path d="M8378 10236 c-28 -21 -22 -39 6 -21 23 15 27 15 50 0 19 -12 26 -14
26 -5 0 16 -30 39 -50 39 -8 0 -23 -6 -32 -13z"/>
<path d="M8400 10201 c0 -5 -9 -13 -20 -16 -11 -3 -20 -13 -20 -22 0 -13 3
-13 26 2 23 15 27 15 50 0 35 -23 30 0 -6 25 -16 12 -30 17 -30 11z"/>
<path d="M8387 10142 c-38 -23 -36 -46 2 -24 28 16 31 15 50 -2 16 -14 21 -16
21 -5 0 8 -11 21 -23 31 -21 15 -25 15 -50 0z"/>
<path d="M8388 10092 c-16 -9 -28 -22 -28 -30 0 -9 6 -9 24 3 23 15 27 15 50
0 32 -21 34 -6 4 23 -22 20 -24 20 -50 4z"/>
<path d="M2863 13774 c-2 -37 0 -42 15 -38 14 5 14 4 3 -4 -16 -11 -26 -127
-11 -117 5 3 12 1 15 -5 4 -6 1 -9 -6 -8 -10 2 -13 -32 -14 -152 -1 -131 2
-156 15 -162 12 -5 11 -7 -4 -7 -15 -1 -16 -4 -6 -16 7 -8 17 -12 23 -8 5 3 7
2 4 -4 -3 -5 13 -25 36 -44 61 -51 65 -52 65 -24 0 22 -3 24 -17 13 -14 -11
-14 -10 1 7 13 15 14 24 6 39 -6 10 -6 16 -2 13 5 -3 10 24 10 60 1 57 -1 63
-13 47 -7 -10 -13 -14 -13 -9 0 5 8 17 17 27 15 17 15 20 3 28 -8 6 -10 10 -5
10 6 0 11 27 12 61 2 56 1 60 -15 48 -12 -10 -11 -7 3 9 16 20 17 25 5 32 -8
6 -10 10 -4 10 7 0 10 23 9 63 -2 69 -8 87 -31 87 -8 0 -12 5 -9 10 3 6 2 10
-3 10 -6 0 -20 11 -33 25 -45 48 -54 48 -56 -1z m67 -158 c0 -2 -8 -10 -17
-17 -16 -13 -17 -12 -4 4 13 16 21 21 21 13z m60 -110 c0 -3 -4 -8 -10 -11 -5
-3 -10 -1 -10 4 0 6 5 11 10 11 6 0 10 -2 10 -4z m-60 -50 c0 -2 -8 -10 -17
-17 -16 -13 -17 -12 -4 4 13 16 21 21 21 13z m-44 -21 c-1 -8 -5 -17 -8 -21
-5 -4 -4 16 1 34 3 9 9 -1 7 -13z"/>
<path d="M9512 13743 c3 -40 19 -49 47 -29 11 8 13 8 7 -1 -4 -9 -2 -11 7 -7
8 3 14 18 13 37 -1 30 -4 32 -39 35 l-38 3 3 -38z"/>
<path d="M4707 13711 c5 -18 25 -24 31 -8 6 18 0 27 -17 27 -14 0 -18 -5 -14
-19z"/>
<path d="M4707 13651 c-3 -13 1 -21 14 -24 21 -6 32 16 16 32 -16 16 -24 14
-30 -8z"/>
<path d="M9512 13613 c2 -28 7 -37 18 -34 8 2 25 4 38 4 25 1 27 7 10 26 -10
11 -10 13 0 7 8 -5 12 0 12 13 0 18 -6 21 -41 21 l-40 0 3 -37z"/>
<path d="M10462 13369 c1 -238 3 -279 15 -275 8 3 12 2 9 -2 -7 -12 22 -45 34
-37 6 4 9 1 8 -7 -2 -7 3 -12 10 -10 8 1 11 -1 8 -6 -3 -5 7 -18 22 -29 l27
-20 0 226 c0 139 -4 229 -10 233 -7 5 -7 8 0 8 13 0 7 80 -8 98 -5 7 -16 11
-23 8 -7 -3 -16 0 -20 6 -4 7 -3 8 4 4 25 -15 10 11 -19 34 -17 14 -37 30 -44
37 -10 10 -13 -40 -13 -268z m103 122 c3 -5 2 -12 -3 -15 -5 -3 -9 1 -9 9 0
17 3 19 12 6z m-44 -338 c13 -16 12 -17 -3 -4 -17 13 -22 21 -14 21 2 0 10 -8
17 -17z"/>
<path d="M4707 13580 c5 -19 23 -26 36 -14 11 11 -5 34 -23 34 -13 0 -17 -5
-13 -20z"/>
<path d="M4713 13534 c-19 -8 -3 -34 21 -34 16 0 18 2 7 9 -7 5 -10 14 -7 20
7 11 0 13 -21 5z"/>
<path d="M9510 13490 c0 -40 0 -40 39 -40 45 0 47 11 14 53 -14 18 -23 23 -26
15 -4 -10 -6 -10 -6 0 -1 6 -5 12 -11 12 -5 0 -10 -18 -10 -40z m50 -5 c0 -1
-6 -7 -13 -13 -10 -8 -13 -6 -13 7 0 11 6 17 13 14 7 -3 13 -6 13 -8z"/>
<path d="M9560 13522 c0 -5 7 -16 16 -23 14 -12 16 -11 13 5 -4 20 -29 35 -29
18z"/>
<path d="M9512 13361 c0 -40 4 -42 71 -32 13 2 3 60 -11 66 -8 3 -22 0 -30 -7
-12 -10 -14 -10 -8 0 4 7 2 12 -8 12 -11 0 -15 -11 -14 -39z m68 -17 c0 -8
-19 -13 -24 -6 -3 5 1 9 9 9 8 0 15 -2 15 -3z"/>
<path d="M6060 13312 c0 -5 -11 -15 -25 -22 -13 -7 -22 -17 -19 -22 3 -5 17
-2 30 7 22 14 26 14 49 -1 36 -23 31 0 -5 26 -16 12 -30 17 -30 12z"/>
<path d="M6033 13241 c-29 -24 -17 -36 15 -15 22 14 25 14 43 -2 10 -9 22 -14
27 -10 8 9 -34 46 -52 46 -6 -1 -21 -9 -33 -19z"/>
<path d="M6038 13196 c-28 -21 -22 -39 6 -21 23 15 27 15 50 0 32 -21 35 -2 4
19 -27 19 -38 19 -60 2z"/>
<path d="M6054 13157 c-10 -6 -22 -15 -26 -21 -15 -22 -8 -26 16 -11 23 15 27
15 50 0 33 -22 34 -6 2 22 -18 16 -27 18 -42 10z"/>
<path d="M2140 13020 c0 -15 6 -20 28 -19 15 0 22 3 15 5 -7 3 -9 13 -6 22 6
15 5 16 -12 2 -11 -9 -16 -10 -11 -2 4 6 2 12 -3 12 -6 0 -11 -9 -11 -20z"/>
<path d="M2140 12950 c0 -13 7 -20 18 -20 24 0 32 8 25 26 -8 22 -43 17 -43
-6z"/>
<path d="M2140 12874 c0 -16 5 -21 18 -19 9 2 22 4 27 4 6 1 3 5 -5 10 -8 6
-18 7 -24 4 -5 -3 -6 -1 -2 6 4 6 12 9 17 6 5 -4 9 -2 9 4 0 5 -9 9 -20 8 -13
-1 -20 -8 -20 -23z"/>
<path d="M2142 12806 c2 -11 11 -20 21 -22 12 -1 17 2 14 11 -3 7 -1 17 5 23
7 7 2 10 -16 9 -20 -2 -26 -7 -24 -21z"/>
<path d="M10966 12669 c-14 -11 -24 -25 -21 -30 4 -5 15 0 27 11 21 19 21 19
46 -1 35 -27 42 -14 9 16 -32 30 -28 30 -61 4z"/>
<path d="M10978 12629 c-10 -5 -23 -19 -29 -31 -12 -22 -1 -19 32 9 14 11 18
11 29 -2 7 -8 19 -15 28 -15 12 0 10 6 -8 25 -26 28 -28 28 -52 14z"/>
<path d="M10966 12569 c-33 -26 -26 -38 8 -16 21 14 26 14 36 2 7 -8 19 -15
27 -15 13 0 13 3 3 16 -27 31 -46 35 -74 13z"/>
<path d="M10960 12515 c-26 -28 -16 -33 17 -10 19 13 23 13 37 0 16 -16 36
-20 36 -7 0 7 -52 42 -62 42 -3 0 -15 -11 -28 -25z"/>
<path d="M3300 12402 c-18 -16 -34 -36 -36 -46 -2 -14 3 -13 31 8 41 32 48 32
85 4 16 -12 33 -19 36 -15 7 7 -61 77 -74 77 -4 0 -23 -13 -42 -28z"/>
<path d="M3303 12331 c-22 -16 -40 -36 -40 -45 0 -20 -3 -21 37 9 42 31 42 31
78 0 29 -25 45 -25 35 0 -2 8 -20 25 -38 39 l-33 25 -39 -28z"/>
<path d="M3291 12250 c-45 -38 -32 -61 15 -25 l34 26 33 -25 c34 -26 50 -26
40 0 -5 14 -64 54 -79 54 -5 -1 -24 -14 -43 -30z"/>
<path d="M3297 12179 c-36 -29 -47 -49 -28 -49 5 0 23 11 39 24 l29 25 36 -26
c21 -15 40 -23 44 -20 6 7 -62 77 -75 77 -4 0 -24 -14 -45 -31z"/>
<path d="M12482 11201 c2 -17 0 -31 -5 -31 -5 0 -5 -6 1 -13 7 -8 7 -18 2 -27
-5 -8 -6 -18 -4 -22 11 -17 12 -48 2 -48 -7 0 -7 -4 0 -13 7 -8 7 -18 2 -27
-5 -8 -6 -18 -3 -23 9 -15 9 -67 0 -67 -5 0 -5 -6 1 -13 7 -8 7 -18 2 -27 -5
-8 -6 -18 -4 -22 11 -18 12 -48 1 -48 -8 0 -8 -3 1 -12 7 -7 8 -17 2 -28 -5
-9 -5 -22 0 -30 5 -8 5 -21 0 -30 -12 -22 11 -65 33 -64 9 1 14 -2 11 -7 -6
-10 19 -39 33 -39 4 0 14 -9 21 -20 7 -11 16 -20 21 -20 6 0 10 112 10 269 l0
270 -30 28 c-17 15 -47 43 -66 62 l-36 33 5 -31z m48 -105 c0 -2 -8 -10 -17
-17 -16 -13 -17 -12 -4 4 13 16 21 21 21 13z m17 -51 c0 -8 -4 -12 -9 -9 -5 3
-6 10 -3 15 9 13 12 11 12 -6z m13 -161 c0 -8 -19 -13 -24 -6 -3 5 1 9 9 9 8
0 15 -2 15 -3z m-30 -28 c0 -2 -8 -10 -17 -17 -16 -13 -17 -12 -4 4 13 16 21
21 21 13z m4 -174 c3 -5 -1 -9 -9 -9 -8 0 -12 4 -9 9 3 4 7 8 9 8 2 0 6 -4 9
-8z"/>
<path d="M2184 10678 c1 -7 6 -19 10 -27 5 -8 5 -12 0 -8 -5 3 -9 -59 -8 -149
l0 -154 34 -35 c19 -19 37 -35 41 -35 4 0 7 56 8 125 0 97 -2 124 -12 119 -9
-6 -9 -4 0 8 22 27 13 93 -16 120 -49 44 -60 51 -57 36z"/>
<path d="M1590 8884 c0 -13 5 -25 10 -25 40 -5 45 -3 48 22 3 23 -1 26 -27 27
-26 1 -31 -3 -31 -24z"/>
<path d="M1592 8789 c-2 -28 12 -47 23 -30 3 6 12 8 20 5 10 -4 13 2 12 22 -2
22 -8 28 -28 29 -21 1 -25 -3 -27 -26z m32 5 c3 -8 2 -12 -4 -9 -6 3 -10 10
-10 16 0 14 7 11 14 -7z"/>
<path d="M1596 8713 c-15 -15 -5 -41 18 -45 24 -5 36 7 36 36 0 12 -43 20 -54
9z"/>
<path d="M1595 8622 c-8 -9 -6 -24 3 -18 5 3 9 -1 9 -9 0 -8 -4 -12 -9 -9 -4
3 -8 0 -8 -5 0 -6 14 -11 31 -11 27 0 30 3 27 27 -2 19 -9 27 -26 28 -12 1
-24 -1 -27 -3z"/>
<path d="M11298 8449 c-41 -30 -38 -57 2 -29 32 23 39 22 78 -6 19 -15 22 -15
22 -1 0 15 -50 57 -67 57 -4 0 -20 -10 -35 -21z"/>
<path d="M11298 8385 c-16 -13 -28 -31 -28 -40 0 -13 6 -11 31 9 l31 27 34
-26 c30 -23 34 -24 34 -8 0 14 -58 64 -72 63 -2 0 -15 -12 -30 -25z"/>
<path d="M2732 8319 c-40 -38 -32 -58 11 -25 l31 25 33 -25 c29 -22 33 -23 33
-7 0 14 -57 63 -72 63 -2 0 -18 -14 -36 -31z"/>
<path d="M11302 8321 c-42 -34 -43 -61 -1 -30 27 19 34 20 55 9 13 -8 24 -17
24 -22 0 -4 5 -8 10 -8 21 0 9 29 -23 53 l-33 25 -32 -27z"/>
<path d="M2728 8250 c-37 -38 -30 -50 12 -20 32 22 39 22 78 -6 19 -15 22 -15
22 -1 0 16 -50 57 -70 57 -6 0 -25 -14 -42 -30z"/>
<path d="M11302 8258 c-18 -11 -32 -28 -32 -40 0 -18 2 -18 31 6 l31 27 34
-26 c39 -30 49 -12 12 22 -36 32 -42 33 -76 11z"/>
<path d="M2738 8197 c-16 -13 -28 -31 -28 -41 0 -15 4 -14 31 8 l31 27 34 -26
c30 -23 34 -24 34 -8 0 14 -59 65 -72 63 -2 -1 -15 -11 -30 -23z"/>
<path d="M2736 8127 c-16 -13 -27 -29 -25 -36 3 -9 12 -6 28 8 30 26 36 26 69
0 19 -14 28 -17 31 -8 4 13 -46 59 -64 59 -5 0 -23 -11 -39 -23z"/>
<path d="M11575 6900 c-3 -5 3 -10 15 -10 12 0 18 5 15 10 -3 6 -10 10 -15 10
-5 0 -12 -4 -15 -10z"/>
<path d="M11582 6861 c-11 -7 -11 -9 2 -14 10 -4 16 -1 16 8 0 17 -1 17 -18 6z"/>
<path d="M11576 6813 c5 -5 12 -12 16 -18 4 -6 8 -2 8 8 0 9 -7 17 -17 17 -9
0 -12 -3 -7 -7z"/>
<path d="M11570 6760 c0 -5 7 -10 15 -10 8 0 15 5 15 10 0 6 -7 10 -15 10 -8
0 -15 -4 -15 -10z"/>
<path d="M1229 6529 c-5 -30 -2 -179 4 -179 5 0 5 -5 1 -12 -10 -17 -11 -228
-1 -228 5 0 5 -5 1 -12 -4 -7 -7 -36 -7 -65 0 -45 4 -57 23 -70 13 -9 32 -27
43 -40 14 -15 28 -21 41 -18 12 3 16 2 9 -1 -13 -6 -7 -34 8 -34 13 0 10 512
-4 529 -10 12 -9 13 2 7 9 -6 12 -5 9 5 -3 8 -11 13 -17 11 -7 -1 -10 2 -7 6
3 5 -6 18 -21 28 -14 11 -39 32 -54 48 -16 16 -29 27 -30 25z m101 -273 c0 -2
-8 -10 -17 -17 -16 -13 -17 -12 -4 4 13 16 21 21 21 13z m17 -101 c0 -8 -4
-12 -9 -9 -5 3 -6 10 -3 15 9 13 12 11 12 -6z m-26 -42 c13 -16 12 -17 -3 -4
-10 7 -18 15 -18 17 0 8 8 3 21 -13z m-36 -61 c-3 -3 -11 0 -18 7 -9 10 -8 11
6 5 10 -3 15 -9 12 -12z"/>
<path d="M13433 6515 c0 -8 4 -15 9 -15 5 0 6 -5 2 -12 -12 -19 -12 -108 0
-108 8 0 8 -3 1 -8 -13 -9 -13 -81 -1 -101 6 -8 5 -12 0 -8 -5 3 -9 -38 -9
-99 0 -63 4 -104 10 -104 7 0 6 -3 0 -8 -21 -14 -11 -66 15 -87 14 -10 33 -28
42 -38 15 -17 20 -18 35 -6 16 13 17 12 4 -4 -12 -15 -12 -19 5 -32 12 -9 20
-10 23 -3 2 6 -3 14 -10 19 -8 5 -9 9 -3 9 6 0 11 14 12 30 0 21 -3 28 -11 23
-7 -4 -6 0 2 10 9 11 10 17 2 17 -6 0 -11 5 -11 11 0 5 5 7 10 4 17 -11 11 17
-7 31 -15 12 -15 13 -2 8 14 -4 16 1 15 30 0 19 -4 37 -8 41 -4 4 -2 15 4 25
9 14 9 22 0 33 -7 7 -9 17 -5 21 5 4 9 28 10 53 2 41 1 44 -15 32 -13 -11 -13
-8 2 9 11 12 14 22 8 22 -7 0 -12 5 -12 11 0 5 5 7 10 4 17 -11 11 17 -7 31
-15 11 -15 13 -2 9 12 -5 16 1 17 24 1 32 -39 81 -66 81 -8 0 -13 3 -9 6 5 6
-44 54 -55 54 -3 0 -5 -7 -5 -15z m94 -120 c0 -8 -4 -12 -9 -9 -5 3 -6 10 -3
15 9 13 12 11 12 -6z m-36 -32 c13 -16 12 -17 -3 -4 -17 13 -22 21 -14 21 2 0
10 -8 17 -17z m34 -2 c3 -5 2 -12 -3 -15 -5 -3 -9 1 -9 9 0 17 3 19 12 6z m0
-70 c3 -5 2 -12 -3 -15 -5 -3 -9 1 -9 9 0 17 3 19 12 6z m-25 -5 c0 -2 -8 -10
-17 -17 -16 -13 -17 -12 -4 4 13 16 21 21 21 13z m-9 -243 c13 -16 12 -17 -3
-4 -17 13 -22 21 -14 21 2 0 10 -8 17 -17z m34 -2 c3 -5 2 -12 -3 -15 -5 -3
-9 1 -9 9 0 17 3 19 12 6z"/>
<path d="M8534 6275 c-18 -15 -18 -15 7 -9 17 3 30 1 35 -7 5 -9 2 -11 -8 -6
-9 3 -24 -3 -34 -14 -18 -20 -6 -27 14 -7 8 8 15 8 27 -2 8 -7 18 -10 22 -6 3
3 1 6 -6 6 -8 0 -11 6 -7 16 6 16 -9 44 -23 44 -4 0 -16 -7 -27 -15z"/>
<path d="M3730 6265 c0 -8 5 -15 10 -15 6 0 10 7 10 15 0 8 -4 15 -10 15 -5 0
-10 -7 -10 -15z"/>
<path d="M3725 6220 c3 -5 10 -10 16 -10 5 0 9 5 9 10 0 6 -7 10 -16 10 -8 0
-12 -4 -9 -10z"/>
<path d="M8538 6209 c-10 -5 -18 -14 -18 -20 0 -5 9 -4 19 3 15 9 23 9 35 -1
19 -16 22 -1 4 17 -14 14 -18 14 -40 1z"/>
<path d="M3730 6175 c0 -8 5 -15 10 -15 6 0 10 7 10 15 0 8 -4 15 -10 15 -5 0
-10 -7 -10 -15z"/>
<path d="M8530 6165 c-8 -9 -9 -15 -2 -15 6 0 14 5 17 10 5 8 11 7 21 -1 8 -6
18 -9 21 -5 8 8 -15 26 -33 26 -6 0 -17 -7 -24 -15z"/>
<path d="M3730 6136 c0 -9 5 -16 10 -16 6 0 10 4 10 9 0 6 -4 13 -10 16 -5 3
-10 -1 -10 -9z"/>
<path d="M11345 5783 c1 -88 4 -117 15 -125 13 -8 12 -9 -2 -5 -11 4 -15 1
-13 -11 2 -9 4 -22 4 -29 1 -6 10 -15 21 -18 11 -3 20 -13 20 -22 0 -8 5 -13
11 -11 13 4 19 88 6 88 -4 0 -5 5 -1 11 4 6 7 49 8 95 1 79 0 86 -24 107 -14
13 -30 26 -35 29 -6 4 -10 -35 -10 -109z"/>
<path d="M8531 5270 c1 -128 2 -130 23 -125 11 2 15 2 8 -1 -10 -5 -10 -9 -1
-20 20 -24 28 -16 26 25 -1 24 -5 37 -12 33 -5 -3 -4 2 4 11 10 13 10 17 1 17
-10 0 -10 3 -1 14 8 10 9 16 1 21 -5 3 -10 12 -10 18 0 7 4 6 10 -3 8 -12 10
-11 10 8 0 12 -5 22 -11 22 -8 0 -8 4 -1 13 20 23 -7 85 -31 70 -5 -3 -7 -1
-3 5 3 6 2 13 -4 17 -7 4 -10 -38 -9 -125z"/>
<path d="M12860 5365 c0 -43 48 -53 62 -14 8 21 -10 39 -39 39 -18 0 -23 -6
-23 -25z"/>
<path d="M12867 5283 c-4 -3 -7 -18 -7 -33 0 -23 4 -27 29 -28 20 0 30 5 34
18 6 25 -17 58 -28 40 -5 -9 -9 -9 -14 -1 -4 6 -10 8 -14 4z"/>
<path d="M5283 5226 c-15 -13 -25 -27 -21 -31 4 -4 14 0 23 9 21 20 34 20 57
-1 22 -20 36 -10 18 12 -28 34 -47 36 -77 11z"/>
<path d="M5287 5175 c-15 -12 -27 -28 -27 -35 0 -8 9 -5 25 10 23 22 25 22 49
6 46 -29 52 -12 8 21 l-29 21 -26 -23z"/>
<path d="M12866 5173 c-3 -3 -6 -20 -6 -37 0 -24 3 -27 10 -16 9 13 10 13 10
0 0 -13 1 -13 10 0 6 10 10 11 10 3 0 -7 5 -13 11 -13 6 0 9 7 5 15 -3 8 0 15
7 15 9 0 8 3 -1 9 -8 4 -12 12 -10 16 4 10 -37 17 -46 8z"/>
<path d="M5283 5121 c-33 -28 -29 -47 4 -23 27 20 28 20 55 0 17 -11 28 -15
28 -8 0 14 -40 49 -55 49 -5 0 -20 -8 -32 -18z"/>
<path d="M5286 5069 c-35 -27 -34 -46 2 -21 27 20 28 20 51 1 34 -27 41 -13 8
16 -32 30 -28 30 -61 4z"/>
<path d="M4382 5039 c-2 -23 1 -27 15 -23 15 5 15 4 3 -5 -17 -12 -22 -121 -6
-121 6 0 5 -4 -2 -8 -9 -6 -6 -14 12 -31 l24 -23 0 105 c1 98 -1 107 -22 120
-21 14 -22 13 -24 -14z"/>
<path d="M12862 5040 c0 -24 3 -27 35 -28 30 -1 33 1 23 13 -8 10 -9 15 -2 15
6 0 9 6 6 14 -3 8 -18 14 -33 14 -23 -1 -28 -6 -29 -28z"/>
<path d="M2337 4437 c-20 -18 -37 -40 -37 -51 0 -17 3 -16 33 6 17 13 37 27
43 31 6 3 30 -7 52 -24 38 -28 42 -29 42 -11 0 17 -72 83 -89 82 -4 -1 -23
-15 -44 -33z"/>
<path d="M2342 4357 c-23 -17 -42 -39 -42 -49 0 -23 1 -23 45 12 l37 30 29
-21 c16 -11 31 -24 34 -29 10 -16 25 -11 25 6 0 16 -6 23 -60 63 -25 19 -25
19 -68 -12z"/>
<path d="M2338 4272 c-21 -15 -38 -35 -38 -44 0 -23 13 -23 35 2 29 32 52 34
88 6 40 -31 47 -32 47 -8 -1 15 -70 73 -88 72 -4 -1 -24 -13 -44 -28z"/>
<path d="M2342 4190 c-25 -18 -42 -38 -42 -50 0 -18 4 -17 44 12 l44 31 39
-32 c32 -26 39 -29 42 -15 3 15 -62 82 -80 84 -3 0 -25 -14 -47 -30z"/>
<path d="M9353 4096 c-31 -29 -29 -42 2 -22 23 15 27 15 50 0 28 -19 34 -5 8
18 -30 26 -37 26 -60 4z"/>
<path d="M11457 4079 c-20 -17 -37 -39 -37 -50 0 -19 4 -18 37 10 21 17 41 31
46 31 5 0 23 -11 41 -25 37 -28 46 -31 46 -12 0 14 -72 77 -87 77 -5 0 -25
-14 -46 -31z"/>
<path d="M9348 4046 c-31 -23 -21 -39 12 -20 28 17 30 17 50 -1 13 -12 20 -14
20 -5 0 16 -30 39 -50 39 -8 0 -23 -6 -32 -13z"/>
<path d="M11458 3999 c-21 -17 -38 -40 -38 -50 0 -18 5 -16 40 12 l40 32 45
-32 c41 -29 45 -30 45 -12 0 16 -72 82 -89 81 -4 -1 -23 -14 -43 -31z"/>
<path d="M9350 3995 c-25 -27 -22 -46 3 -20 20 19 36 19 59 -2 12 -11 18 -12
18 -4 0 12 -38 50 -51 51 -3 0 -16 -11 -29 -25z"/>
<path d="M9350 3945 c-29 -31 -22 -42 9 -16 23 20 23 20 44 0 15 -13 23 -16
26 -8 3 11 -35 48 -50 49 -3 0 -16 -11 -29 -25z"/>
<path d="M11461 3919 c-23 -18 -41 -39 -41 -50 0 -25 0 -24 45 11 l37 29 32
-23 c50 -37 56 -39 56 -18 0 11 -19 32 -44 50 l-43 31 -42 -30z"/>
<path d="M11463 3836 c-23 -17 -42 -39 -43 -48 0 -24 6 -23 49 11 l37 29 33
-29 c39 -33 51 -36 50 -11 0 9 -19 31 -42 48 l-43 30 -41 -30z"/>
<path d="M3552 3085 c2 -118 6 -149 16 -147 8 1 11 -2 8 -7 -3 -5 6 -16 19
-25 l26 -17 -2 139 -1 140 -34 33 -35 33 3 -149z m55 -90 c0 -8 -4 -12 -9 -9
-5 3 -6 10 -3 15 9 13 12 11 12 -6z"/>
<path d="M9830 2966 c0 -198 1 -203 35 -196 5 1 7 -2 2 -6 -7 -8 40 -64 55
-64 14 0 3 25 -17 38 l-20 13 20 -5 c19 -6 20 -1 20 167 -1 165 -2 174 -23
195 -13 13 -22 17 -22 10 0 -7 -6 -2 -13 11 -6 14 -18 26 -24 29 -10 3 -13
-40 -13 -192z m78 69 c-3 -3 -9 2 -12 12 -6 14 -5 15 5 6 7 -7 10 -15 7 -18z
m-18 -219 c0 -2 -8 -10 -17 -17 -16 -13 -17 -12 -4 4 13 16 21 21 21 13z"/>
<path d="M5345 2778 c-36 -20 -65 -51 -65 -71 0 -16 5 -14 41 14 28 22 45 30
54 23 7 -5 27 -19 44 -32 29 -22 31 -22 31 -4 0 10 -18 33 -39 50 -45 36 -40
35 -66 20z"/>
<path d="M5316 2676 c-23 -20 -37 -40 -35 -50 4 -15 9 -14 43 13 l39 31 31
-23 c51 -38 56 -40 56 -19 0 15 -77 83 -92 82 -1 -1 -20 -16 -42 -34z"/>
<path d="M2990 2101 c0 -17 18 -21 24 -6 3 9 0 15 -9 15 -8 0 -15 -4 -15 -9z"/>
<path d="M2997 2063 c-12 -11 -8 -23 8 -23 8 0 15 7 15 15 0 16 -12 20 -23 8z"/>
<path d="M2990 2016 c0 -2 7 -9 15 -16 12 -10 15 -10 15 4 0 9 -7 16 -15 16
-8 0 -15 -2 -15 -4z"/>
<path d="M2997 1973 c-11 -10 -8 -20 6 -20 8 0 14 6 14 14 0 14 -10 17 -20 6z"/>
<path d="M13627 1092 c-11 -18 0 -191 12 -206 25 -30 31 -16 31 79 0 81 -3 98
-20 115 -10 10 -21 16 -23 12z"/>
<path d="M9032 894 c-12 -8 -22 -22 -22 -31 0 -13 5 -12 25 7 24 23 25 23 45
5 11 -10 23 -15 27 -11 7 7 -34 45 -47 46 -3 0 -16 -7 -28 -16z"/>
<path d="M9033 843 c-13 -8 -23 -23 -23 -32 0 -9 3 -12 8 -6 4 6 15 16 25 24
15 12 20 11 37 -4 11 -10 23 -15 28 -11 7 7 -33 47 -47 45 -3 0 -16 -7 -28
-16z"/>
<path d="M1130 655 l-1 -195 37 -33 c59 -52 59 -52 58 21 0 48 -4 66 -13 64
-7 -1 -10 2 -6 8 3 6 9 8 13 6 4 -2 7 30 6 72 0 56 -4 76 -13 74 -7 -1 -10 2
-6 8 3 6 10 8 13 6 9 -6 8 52 -2 82 -7 22 -21 29 -29 15 -2 -5 -3 -3 -1 4 4
15 -30 45 -41 36 -4 -5 -5 -3 -1 4 3 6 2 14 -3 17 -6 4 -10 -69 -11 -189z m35
85 c3 -5 1 -10 -4 -10 -6 0 -11 5 -11 10 0 6 2 10 4 10 3 0 8 -4 11 -10z m42
-295 c0 -8 -4 -12 -9 -9 -5 3 -6 10 -3 15 9 13 12 11 12 -6z"/>
<path d="M4428 440 c-24 -15 -12 -50 17 -48 18 2 23 8 22 27 -3 28 -15 35 -39
21z"/>
<path d="M11906 364 c-15 -14 -25 -29 -22 -32 3 -3 15 3 26 13 18 17 21 17 46
1 14 -10 28 -15 32 -12 3 3 3 7 1 9 -2 1 -15 12 -29 24 l-26 22 -28 -25z"/>
<path d="M4423 351 c-6 -3 -10 -14 -10 -23 0 -13 8 -18 29 -18 23 0 27 4 25
22 -4 21 -26 31 -44 19z"/>
<path d="M11906 313 c-15 -14 -25 -28 -22 -31 3 -3 15 3 26 13 20 18 22 18 50
1 38 -22 39 -4 2 23 l-28 20 -28 -26z"/>
<path d="M6217 268 c-15 -11 -27 -26 -27 -34 0 -11 5 -10 22 6 26 24 29 24 54
5 10 -8 22 -15 27 -15 16 0 6 17 -21 37 -28 21 -28 21 -55 1z"/>
<path d="M11906 265 c-35 -32 -33 -40 4 -19 27 17 30 17 48 1 21 -19 32 -22
32 -8 0 5 -13 19 -29 30 l-29 21 -26 -25z"/>
<path d="M4415 260 c-3 -5 -1 -10 6 -10 8 0 8 -4 -1 -15 -11 -13 -8 -15 19
-15 33 0 38 8 19 29 -10 11 -10 13 0 7 6 -4 12 -2 12 3 0 14 -47 14 -55 1z"/>
<path d="M11907 218 c-36 -26 -35 -44 1 -22 27 15 31 15 55 -1 36 -23 35 -2
-1 23 -27 20 -28 20 -55 0z"/>
<path d="M6213 213 c-13 -8 -23 -22 -23 -30 0 -11 6 -10 26 6 l26 21 26 -20
c33 -27 42 -16 12 15 -27 29 -36 30 -67 8z"/>
<path d="M4422 173 c-5 -10 -7 -24 -5 -30 6 -16 53 -17 53 -2 0 5 -6 7 -12 3
-10 -6 -10 -4 0 8 11 14 10 18 -7 27 -16 9 -22 8 -29 -6z"/>
<path d="M6213 161 c-33 -28 -29 -46 5 -25 27 15 31 15 55 -1 37 -24 34 -2 -2
24 -35 25 -31 25 -58 2z"/>
<path d="M6216 109 c-35 -28 -33 -44 4 -23 27 17 30 17 48 1 21 -19 32 -22 32
-8 0 5 -13 19 -29 30 l-29 21 -26 -21z"/>
<path d="M3544 95 c-18 -13 -18 -14 6 -8 l25 6 -25 -22 c-14 -12 -19 -20 -12
-16 6 3 12 1 12 -4 0 -6 -6 -11 -12 -11 -10 0 -9 -3 1 -9 7 -5 9 -11 5 -13 -5
-3 -3 -3 5 -1 7 2 21 -2 30 -9 14 -12 14 -11 2 5 -7 9 -10 17 -6 17 4 0 1 8
-6 17 -12 15 -12 16 4 10 13 -5 16 -3 10 6 -4 6 -8 18 -9 25 -4 22 -9 23 -30
7z"/>
</g>
</svg>
